<mxfile host="app.diagrams.net" modified="2020-09-29T03:55:03.343Z" agent="5.0 (Macintosh; Intel Mac OS X 10_13_3) AppleWebKit/537.36 (KHTML, like Gecko) Chrome/85.0.4183.83 Safari/537.36" etag="Fz_AU29xv0so187jZe08" version="13.7.6" type="github">
  <diagram id="nzrBujOGyVfGsUKNAwE8" name="第 1 页">
    <mxGraphModel dx="946" dy="574" grid="1" gridSize="10" guides="1" tooltips="1" connect="1" arrows="1" fold="1" page="1" pageScale="1" pageWidth="827" pageHeight="1169" math="0" shadow="0">
      <root>
        <mxCell id="0" />
        <mxCell id="1" parent="0" />
        <mxCell id="RfwSD_RgtEfVqQOVIUsx-1" value="Classname" style="swimlane;fontStyle=0;childLayout=stackLayout;horizontal=1;startSize=26;fillColor=none;horizontalStack=0;resizeParent=1;resizeParentMax=0;resizeLast=0;collapsible=1;marginBottom=0;" vertex="1" parent="1">
          <mxGeometry x="340" y="240" width="140" height="104" as="geometry" />
        </mxCell>
        <mxCell id="RfwSD_RgtEfVqQOVIUsx-2" value="+ field: type" style="text;strokeColor=none;fillColor=none;align=left;verticalAlign=top;spacingLeft=4;spacingRight=4;overflow=hidden;rotatable=0;points=[[0,0.5],[1,0.5]];portConstraint=eastwest;" vertex="1" parent="RfwSD_RgtEfVqQOVIUsx-1">
          <mxGeometry y="26" width="140" height="26" as="geometry" />
        </mxCell>
        <mxCell id="RfwSD_RgtEfVqQOVIUsx-3" value="+ field: type" style="text;strokeColor=none;fillColor=none;align=left;verticalAlign=top;spacingLeft=4;spacingRight=4;overflow=hidden;rotatable=0;points=[[0,0.5],[1,0.5]];portConstraint=eastwest;" vertex="1" parent="RfwSD_RgtEfVqQOVIUsx-1">
          <mxGeometry y="52" width="140" height="26" as="geometry" />
        </mxCell>
        <mxCell id="RfwSD_RgtEfVqQOVIUsx-4" value="+ field: type" style="text;strokeColor=none;fillColor=none;align=left;verticalAlign=top;spacingLeft=4;spacingRight=4;overflow=hidden;rotatable=0;points=[[0,0.5],[1,0.5]];portConstraint=eastwest;" vertex="1" parent="RfwSD_RgtEfVqQOVIUsx-1">
          <mxGeometry y="78" width="140" height="26" as="geometry" />
        </mxCell>
      </root>
    </mxGraphModel>
  </diagram>
</mxfile>
